<svg width="36" height="36" viewBox="0 0 36 36" fill="none" xmlns="http://www.w3.org/2000/svg">
<path fill-rule="evenodd" clip-rule="evenodd" d="M18.25 27.8729C18.1668 27.8743 18.0835 27.875 17.9999 27.875C10.5441 27.875 4.5 22.3065 4.5 15.4375C4.5 8.56845 10.5441 3 17.9999 3C25.4557 3 31.4998 8.56845 31.4998 15.4375C31.4998 17.1747 31.1133 18.8287 30.415 20.3305C29.4782 22.4537 28.0324 24.3486 26.464 25.9832C24.0744 28.4738 21.3094 30.3539 19.3405 31.4135C18.8197 31.6938 18.25 31.2549 18.25 30.6437V27.8729Z" fill="white"/>
<path fill-rule="evenodd" clip-rule="evenodd" d="M17.9999 27.875C25.4557 27.875 31.4998 22.3065 31.4998 15.4375C31.4998 8.56845 25.4557 3 17.9999 3C10.5441 3 4.5 8.56845 4.5 15.4375C4.5 22.3065 10.5441 27.875 17.9999 27.875Z" fill="white"/>
</svg>
