<svg width="24" height="24" viewBox="0 0 24 24" fill="none" xmlns="http://www.w3.org/2000/svg">
<rect width="23.9999" height="24" rx="12" fill="#FE2C55"/>
<path d="M11.3026 12.6974H7.33333C6.96514 12.6974 6.66667 12.3989 6.66667 12.0307V11.9693C6.66667 11.6011 6.96514 11.3026 7.33333 11.3026H11.3026V7.33333C11.3026 6.96514 11.601 6.66667 11.9692 6.66667H12.0307C12.3989 6.66667 12.6974 6.96514 12.6974 7.33333V11.3026H16.6666C17.0348 11.3026 17.3333 11.6011 17.3333 11.9693V12.0307C17.3333 12.3989 17.0348 12.6974 16.6666 12.6974H12.6974V16.6667C12.6974 17.0349 12.3989 17.3333 12.0307 17.3333H11.9692C11.601 17.3333 11.3026 17.0349 11.3026 16.6667V12.6974Z" fill="white"/>
<path fill-rule="evenodd" clip-rule="evenodd" d="M11.9692 6.83333C11.6931 6.83333 11.4692 7.05719 11.4692 7.33333V11.4693H7.33333C7.05719 11.4693 6.83333 11.6931 6.83333 11.9693V12.0307C6.83333 12.3069 7.05719 12.5307 7.33333 12.5307H11.4692V16.6667C11.4692 16.9428 11.6931 17.1667 11.9692 17.1667H12.0307C12.3069 17.1667 12.5307 16.9428 12.5307 16.6667V12.5307H16.6666C16.9427 12.5307 17.1666 12.3069 17.1666 12.0307V11.9693C17.1666 11.6931 16.9427 11.4693 16.6666 11.4693H12.5307V7.33333C12.5307 7.05719 12.3069 6.83333 12.0307 6.83333H11.9692ZM11.1359 7.33333C11.1359 6.8731 11.509 6.5 11.9692 6.5H12.0307C12.4909 6.5 12.864 6.8731 12.864 7.33333V11.1359H16.6666C17.1268 11.1359 17.4999 11.509 17.4999 11.9693V12.0307C17.4999 12.491 17.1268 12.8641 16.6666 12.8641H12.864V16.6667C12.864 17.1269 12.4909 17.5 12.0307 17.5H11.9692C11.509 17.5 11.1359 17.1269 11.1359 16.6667V12.8641H7.33333C6.87309 12.8641 6.5 12.491 6.5 12.0307V11.9693C6.5 11.509 6.87309 11.1359 7.33333 11.1359H11.1359V7.33333Z" fill="white"/>
</svg>
