<svg width="91" height="20" viewBox="0 0 91 20" fill="none" xmlns="http://www.w3.org/2000/svg">
<circle cx="5.58509" cy="5.79846" r="1.40052" stroke="#141B34" stroke-width="1.8334" stroke-linecap="round" stroke-linejoin="round"/>
<path d="M0.916748 10C0.916748 5.81867 0.916748 3.72801 2.21572 2.42904C3.51469 1.13007 5.60536 1.13007 9.78668 1.13007C13.968 1.13007 16.0587 1.13007 17.3576 2.42904C18.6566 3.72801 18.6566 5.81867 18.6566 10C18.6566 14.1813 18.6566 16.272 17.3576 17.571C16.0587 18.8699 13.968 18.8699 9.78668 18.8699C5.60536 18.8699 3.51469 18.8699 2.21572 17.571C0.916748 16.272 0.916748 14.1813 0.916748 10Z" stroke="#141B34" stroke-width="1.8334"/>
<path d="M3.25073 18.4031C7.3332 13.5247 11.9097 7.09072 18.654 11.4401" stroke="#141B34" stroke-width="1.8334"/>
<path d="M41.4747 9.54545C42.2277 9.54545 42.8383 8.73136 42.8383 7.72727C42.8383 6.72319 42.2277 5.90909 41.4747 5.90909C40.7216 5.90909 40.111 6.72319 40.111 7.72727C40.111 8.73136 40.7216 9.54545 41.4747 9.54545Z" fill="#161722"/>
<path d="M49.2019 7.72727C49.2019 8.73136 48.5914 9.54545 47.8383 9.54545C47.0852 9.54545 46.4747 8.73136 46.4747 7.72727C46.4747 6.72319 47.0852 5.90909 47.8383 5.90909C48.5914 5.90909 49.2019 6.72319 49.2019 7.72727Z" fill="#161722"/>
<path d="M44.6565 13.8991C46.0201 13.8991 47.3838 12.943 47.3838 11.9389C47.3838 10.9348 45.5656 10.9091 44.6565 10.9091C43.7474 10.9091 41.9292 10.9348 41.9292 11.9389C41.9292 12.943 43.2929 13.8991 44.6565 13.8991Z" fill="#161722"/>
<path fill-rule="evenodd" clip-rule="evenodd" d="M54.6565 10C54.6565 15.5229 50.1794 20 44.6565 20C39.1336 20 34.6565 15.5229 34.6565 10C34.6565 4.4771 39.1336 0 44.6565 0C50.1794 0 54.6565 4.4771 54.6565 10ZM52.8383 10C52.8383 14.5186 49.1751 18.1818 44.6565 18.1818C40.1379 18.1818 36.4747 14.5186 36.4747 10C36.4747 5.4814 40.1379 1.81818 44.6565 1.81818C49.1751 1.81818 52.8383 5.4814 52.8383 10Z" fill="#161722"/>
<path fill-rule="evenodd" clip-rule="evenodd" d="M82.5168 2.03249C80.7186 1.61264 78.8313 1.8134 77.1617 2.60213C75.4921 3.39087 74.1384 4.7212 73.3207 6.37681C72.5029 8.03243 72.2693 9.91597 72.6578 11.7212C73.0462 13.5264 74.0339 15.1471 75.4602 16.3199C76.8866 17.4926 78.6677 18.1484 80.5139 18.1806C82.3602 18.2128 84.163 17.6195 85.6294 16.4971C86.0281 16.192 86.5986 16.2678 86.9038 16.6665C87.209 17.0652 87.1331 17.6358 86.7344 17.9409C84.9423 19.3127 82.7388 20.0378 80.4822 19.9985C78.2257 19.9591 76.0488 19.1577 74.3055 17.7243C72.5622 16.291 71.3551 14.3101 70.8803 12.1037C70.4055 9.8973 70.691 7.59519 71.6905 5.57166C72.6899 3.54813 74.3444 1.92218 76.3851 0.958164C78.4257 -0.00584704 80.7325 -0.251223 82.9302 0.261931C85.128 0.775085 87.0876 2.01659 88.4903 3.78459C89.8931 5.5526 90.6565 7.74312 90.6565 10C90.6565 11.6122 90.2544 12.8437 89.4863 13.6418C88.6991 14.4596 87.6585 14.6864 86.7061 14.534C85.7428 14.3799 84.7576 13.8044 84.1076 12.9583C83.274 13.9299 82.0371 14.5455 80.6565 14.5455C78.1461 14.5455 76.111 12.5104 76.111 10C76.111 7.48962 78.1461 5.45455 80.6565 5.45455C83.1669 5.45455 85.202 7.48962 85.202 10C85.202 10.1962 85.1895 10.3895 85.1654 10.5792L85.1929 10.5831C85.0534 11.5591 85.9293 12.5685 86.9933 12.7387C87.4614 12.8136 87.8697 12.6995 88.1763 12.3809C88.501 12.0436 88.8365 11.3462 88.8384 10.011C88.8383 10.0073 88.8383 10.0037 88.8383 10C88.8383 8.15346 88.2137 6.36121 87.066 4.91467C85.9183 3.46812 84.315 2.45234 82.5168 2.03249ZM80.6565 12.7273C82.1627 12.7273 83.3838 11.5062 83.3838 10C83.3838 8.49377 82.1627 7.27273 80.6565 7.27273C79.1503 7.27273 77.9292 8.49377 77.9292 10C77.9292 11.5062 79.1503 12.7273 80.6565 12.7273Z" fill="#161722"/>
</svg>
