<svg width="36" height="36" viewBox="0 0 36 36" fill="none" xmlns="http://www.w3.org/2000/svg">
<path d="M31.7239 19.6971C32.0833 19.3725 32.0928 18.8116 31.7446 18.475L20.6341 7.73663C20.1033 7.2236 19.2166 7.59975 19.2166 8.33797V12.8206C15.0635 12.7564 11.9434 13.8427 9.62469 15.5073C7.26973 17.1979 5.76926 19.465 4.84464 21.6623C3.92088 23.8576 3.56489 25.9992 3.5082 27.4676C3.48024 28.1918 3.52343 28.7894 3.62719 29.1546C3.65371 29.2479 3.68954 29.3458 3.74104 29.4324C3.78638 29.5087 3.88229 29.6414 4.05656 29.6968C4.26626 29.7636 4.44423 29.678 4.54739 29.5894C4.64049 29.5095 4.70306 29.4064 4.74635 29.3198L4.75185 29.3088L4.75628 29.2985L4.75776 29.2951L4.7663 29.2765C4.77454 29.2589 4.78796 29.2309 4.80696 29.1937C4.84496 29.1191 4.90521 29.0075 4.99089 28.8667C5.16229 28.5851 5.43514 28.1876 5.83481 27.738C6.63314 26.8399 7.93995 25.7308 9.96362 24.9213C11.1155 24.4606 13.0356 24.2509 14.9181 24.217C16.7146 24.1846 18.39 24.3131 19.2166 24.4953V29.1094C19.2166 29.8341 20.0755 30.2158 20.6134 29.7301L31.7239 19.6971Z" fill="white"/>
<path d="M28.3011 18.5035C29.1037 17.5706 28.3011 16.2398 28.3011 16.2398L26.9162 13.8115L20.6341 7.73663C20.1033 7.2236 19.2166 7.59975 19.2166 8.33797V12.8206C15.0635 12.7564 11.9434 13.8427 9.62469 15.5073C7.26973 17.1979 5.76926 19.465 4.84464 21.6623C3.92088 23.8576 3.56489 25.9992 3.5082 27.4676C3.48024 28.1918 3.52343 28.7894 3.62719 29.1546C3.65371 29.2479 3.68954 29.3458 3.74104 29.4324C3.78638 29.5087 3.88229 29.6414 4.05656 29.6968C4.26626 29.7636 4.44423 29.678 4.54739 29.5894C4.64049 29.5095 4.70306 29.4064 4.74635 29.3198L4.75185 29.3088L4.75628 29.2985L4.75776 29.2951L4.7663 29.2765C4.77454 29.2589 4.78796 29.2309 4.80696 29.1937C4.84496 29.1191 4.90521 29.0075 4.99089 28.8667C5.16229 28.5851 5.43514 28.1876 5.83481 27.738C6.63314 26.8399 11.0627 23.6968 13.5716 22.4424C15.6623 21.1879 19.2166 20.3516 19.2166 20.3516V25.3694C19.2166 26.0941 20.0755 26.4758 20.6134 25.9901L28.3011 18.5035Z" fill="white"/>
</svg>
