<svg width="402" height="62" viewBox="0 0 402 62" fill="none" xmlns="http://www.w3.org/2000/svg">
<rect width="402" height="62" fill="black"/>
<path fill-rule="evenodd" clip-rule="evenodd" d="M40.4822 9.67446C40.203 9.44185 39.7974 9.44185 39.5181 9.67446L28.6968 18.6894C27.9755 19.2903 28.4005 20.464 29.3395 20.464H30.9893L31.3959 28.593C31.4493 29.6613 32.3313 30.5 33.4012 30.5H38.2433C38.6591 30.5 38.9962 30.163 38.9962 29.7473V23.4748C38.9962 23.1976 39.221 22.973 39.4982 22.973H40.5021C40.7793 22.973 41.0041 23.1976 41.0041 23.4748V29.7473C41.0041 30.163 41.3412 30.5 41.757 30.5H46.5991C47.669 30.5 48.551 29.6613 48.6044 28.593L49.011 20.464H50.6608C51.5998 20.464 52.0249 19.2903 51.3035 18.6894L40.4822 9.67446Z" fill="white"/>
<path d="M31.5011 44V36.95H32.8011V44H31.5011ZM27.1011 44V36.95H28.3911V44H27.1011ZM27.9511 40.77V39.62H31.9511V40.77H27.9511ZM36.4614 44.12C35.9548 44.12 35.5014 44.01 35.1014 43.79C34.7014 43.57 34.3881 43.2567 34.1614 42.85C33.9348 42.4367 33.8214 41.9533 33.8214 41.4C33.8214 40.84 33.9348 40.3567 34.1614 39.95C34.3881 39.5433 34.7014 39.23 35.1014 39.01C35.5014 38.7833 35.9548 38.67 36.4614 38.67C36.9681 38.67 37.4181 38.7833 37.8114 39.01C38.2114 39.23 38.5248 39.5433 38.7514 39.95C38.9848 40.3567 39.1014 40.84 39.1014 41.4C39.1014 41.9533 38.9848 42.4367 38.7514 42.85C38.5248 43.2567 38.2114 43.57 37.8114 43.79C37.4181 44.01 36.9681 44.12 36.4614 44.12ZM36.4614 43.09C36.7214 43.09 36.9514 43.0267 37.1514 42.9C37.3581 42.7733 37.5214 42.5867 37.6414 42.34C37.7614 42.0867 37.8214 41.7733 37.8214 41.4C37.8214 41.02 37.7614 40.7067 37.6414 40.46C37.5214 40.2067 37.3581 40.0167 37.1514 39.89C36.9514 39.7633 36.7214 39.7 36.4614 39.7C36.2014 39.7 35.9681 39.7633 35.7614 39.89C35.5614 40.0167 35.4014 40.2067 35.2814 40.46C35.1614 40.7067 35.1014 41.02 35.1014 41.4C35.1014 41.7733 35.1581 42.0867 35.2714 42.34C35.3914 42.5867 35.5548 42.7733 35.7614 42.9C35.9681 43.0267 36.2014 43.09 36.4614 43.09ZM39.9985 44V38.79H41.1585V39.48H41.1685C41.3018 39.22 41.4951 39.02 41.7485 38.88C42.0018 38.74 42.3018 38.67 42.6485 38.67C43.0018 38.67 43.3051 38.7433 43.5585 38.89C43.8185 39.03 44.0151 39.2367 44.1485 39.51H44.1585C44.2985 39.2433 44.5018 39.0367 44.7685 38.89C45.0351 38.7433 45.3418 38.67 45.6885 38.67C46.0685 38.67 46.3918 38.7433 46.6585 38.89C46.9251 39.03 47.1285 39.2367 47.2685 39.51C47.4151 39.7833 47.4885 40.12 47.4885 40.52V44H46.2485V40.8C46.2485 40.46 46.1685 40.2 46.0085 40.02C45.8485 39.8333 45.6285 39.74 45.3485 39.74C45.0351 39.74 44.7918 39.8467 44.6185 40.06C44.4451 40.2667 44.3585 40.5567 44.3585 40.93V44H43.1185V40.8C43.1185 40.46 43.0385 40.2 42.8785 40.02C42.7251 39.8333 42.5085 39.74 42.2285 39.74C41.9218 39.74 41.6785 39.85 41.4985 40.07C41.3251 40.2833 41.2385 40.58 41.2385 40.96V44H39.9985ZM50.9329 44.12C50.4063 44.12 49.9463 44.0067 49.5529 43.78C49.1663 43.5467 48.8663 43.2233 48.6529 42.81C48.4463 42.3967 48.3429 41.9133 48.3429 41.36C48.3429 40.8267 48.4529 40.36 48.6729 39.96C48.8929 39.5533 49.1929 39.2367 49.5729 39.01C49.9596 38.7833 50.3996 38.67 50.8929 38.67C51.3796 38.67 51.8029 38.77 52.1629 38.97C52.5229 39.17 52.8029 39.4567 53.0029 39.83C53.2029 40.1967 53.3029 40.6333 53.3029 41.14C53.3029 41.24 53.2996 41.34 53.2929 41.44C53.2863 41.54 53.2796 41.6233 53.2729 41.69H48.9629V40.86H52.4829L52.1029 41.01C52.1029 40.7033 52.0529 40.4467 51.9529 40.24C51.8596 40.0267 51.7196 39.8667 51.5329 39.76C51.3463 39.6533 51.1196 39.6 50.8529 39.6C50.6063 39.6 50.3863 39.6533 50.1929 39.76C49.9996 39.8667 49.8463 40.0333 49.7329 40.26C49.6263 40.48 49.5729 40.7633 49.5729 41.11V41.55C49.5729 42.0367 49.6896 42.4233 49.9229 42.71C50.1563 42.99 50.5096 43.13 50.9829 43.13C51.2696 43.13 51.5163 43.07 51.7229 42.95C51.9363 42.8233 52.1096 42.63 52.2429 42.37L53.1929 42.85C53.0663 43.1233 52.8929 43.3567 52.6729 43.55C52.4529 43.7367 52.1963 43.88 51.9029 43.98C51.6163 44.0733 51.2929 44.12 50.9329 44.12Z" fill="white"/>
<path fill-rule="evenodd" clip-rule="evenodd" d="M115.167 18.1906C117.067 18.1906 118.607 16.6502 118.607 14.75C118.607 12.8498 117.067 11.3094 115.167 11.3094C113.267 11.3094 111.726 12.8498 111.726 14.75C111.726 16.6502 113.267 18.1906 115.167 18.1906ZM115.167 20C118.066 20 120.417 17.6495 120.417 14.75C120.417 11.8505 118.066 9.5 115.167 9.5C112.267 9.5 109.917 11.8505 109.917 14.75C109.917 17.6495 112.267 20 115.167 20Z" fill="white" fill-opacity="0.8"/>
<path fill-rule="evenodd" clip-rule="evenodd" d="M125.054 19.8343C125.92 19.8343 126.622 19.1322 126.622 18.2662C126.622 17.4001 125.92 16.698 125.054 16.698C124.187 16.698 123.485 17.4001 123.485 18.2662C123.485 19.1322 124.187 19.8343 125.054 19.8343ZM125.054 21.6437C126.919 21.6437 128.431 20.1315 128.431 18.2662C128.431 16.4008 126.919 14.8886 125.054 14.8886C123.188 14.8886 121.676 16.4008 121.676 18.2662C121.676 20.1315 123.188 21.6437 125.054 21.6437Z" fill="white" fill-opacity="0.8"/>
<path fill-rule="evenodd" clip-rule="evenodd" d="M110.266 25.2808C108.962 26.4187 108.226 27.875 108.226 29.2432C108.226 29.7429 107.821 30.1479 107.321 30.1479C106.822 30.1479 106.417 29.7429 106.417 29.2432C106.417 27.2339 107.477 25.3126 109.076 23.9174C110.684 22.5145 112.898 21.5834 115.343 21.5834C117.788 21.5834 120.002 22.5145 121.61 23.9174C123.209 25.3126 124.269 27.2339 124.269 29.2432C124.269 29.7429 123.864 30.1479 123.365 30.1479C122.865 30.1479 122.46 29.7429 122.46 29.2432C122.46 27.875 121.725 26.4187 120.42 25.2808C119.125 24.1505 117.328 23.3928 115.343 23.3928C113.358 23.3928 111.561 24.1505 110.266 25.2808Z" fill="white" fill-opacity="0.8"/>
<path fill-rule="evenodd" clip-rule="evenodd" d="M126.315 25.0816C125.931 25.0816 125.559 25.1128 125.204 25.1726C124.711 25.2556 124.244 24.9234 124.161 24.4307C124.078 23.9379 124.411 23.4713 124.903 23.3883C125.36 23.3114 125.833 23.2722 126.315 23.2722C129.649 23.2722 132.25 25.8738 131.824 29.3532C131.763 29.8492 131.311 30.202 130.816 30.1412C130.32 30.0805 129.967 29.6292 130.028 29.1332C130.311 26.8226 128.655 25.0816 126.315 25.0816Z" fill="white" fill-opacity="0.8"/>
<path d="M103.495 44V36.95H107.775V38.05H104.235L104.785 37.38V44H103.495ZM104.335 40.87V39.76H107.185V40.87H104.335ZM108.316 44V38.79H109.476V39.47H109.486C109.593 39.23 109.756 39.0367 109.976 38.89C110.203 38.7433 110.469 38.67 110.776 38.67C110.836 38.67 110.896 38.6733 110.956 38.68C111.016 38.6867 111.069 38.6967 111.116 38.71V39.87C111.043 39.8567 110.973 39.8467 110.906 39.84C110.839 39.8333 110.763 39.83 110.676 39.83C110.469 39.83 110.279 39.8767 110.106 39.97C109.939 40.0633 109.806 40.2067 109.706 40.4C109.606 40.5933 109.556 40.8433 109.556 41.15V44H108.316ZM111.822 44V38.79H113.062V44H111.822ZM112.452 38.14C112.232 38.14 112.048 38.0667 111.902 37.92C111.762 37.7733 111.692 37.5967 111.692 37.39C111.692 37.1833 111.762 37.0067 111.902 36.86C112.048 36.7133 112.232 36.64 112.452 36.64C112.665 36.64 112.842 36.7133 112.982 36.86C113.128 37.0067 113.202 37.1833 113.202 37.39C113.202 37.5967 113.128 37.7733 112.982 37.92C112.842 38.0667 112.665 38.14 112.452 38.14ZM116.565 44.12C116.038 44.12 115.578 44.0067 115.185 43.78C114.798 43.5467 114.498 43.2233 114.285 42.81C114.078 42.3967 113.975 41.9133 113.975 41.36C113.975 40.8267 114.085 40.36 114.305 39.96C114.525 39.5533 114.825 39.2367 115.205 39.01C115.591 38.7833 116.031 38.67 116.525 38.67C117.011 38.67 117.435 38.77 117.795 38.97C118.155 39.17 118.435 39.4567 118.635 39.83C118.835 40.1967 118.935 40.6333 118.935 41.14C118.935 41.24 118.931 41.34 118.925 41.44C118.918 41.54 118.911 41.6233 118.905 41.69H114.595V40.86H118.115L117.735 41.01C117.735 40.7033 117.685 40.4467 117.585 40.24C117.491 40.0267 117.351 39.8667 117.165 39.76C116.978 39.6533 116.751 39.6 116.485 39.6C116.238 39.6 116.018 39.6533 115.825 39.76C115.631 39.8667 115.478 40.0333 115.365 40.26C115.258 40.48 115.205 40.7633 115.205 41.11V41.55C115.205 42.0367 115.321 42.4233 115.555 42.71C115.788 42.99 116.141 43.13 116.615 43.13C116.901 43.13 117.148 43.07 117.355 42.95C117.568 42.8233 117.741 42.63 117.875 42.37L118.825 42.85C118.698 43.1233 118.525 43.3567 118.305 43.55C118.085 43.7367 117.828 43.88 117.535 43.98C117.248 44.0733 116.925 44.12 116.565 44.12ZM123.131 44V40.88C123.131 40.4933 123.041 40.2067 122.861 40.02C122.681 39.8333 122.441 39.74 122.141 39.74C121.801 39.74 121.527 39.8533 121.321 40.08C121.121 40.3 121.021 40.6033 121.021 40.99V44H119.781V38.79H120.941V39.49H120.951C121.097 39.23 121.301 39.03 121.561 38.89C121.821 38.7433 122.131 38.67 122.491 38.67C122.864 38.67 123.191 38.7433 123.471 38.89C123.751 39.0367 123.971 39.26 124.131 39.56C124.291 39.86 124.371 40.2467 124.371 40.72V44H123.131ZM127.515 44.12C127.081 44.12 126.691 44.01 126.345 43.79C125.998 43.57 125.725 43.2567 125.525 42.85C125.325 42.4433 125.225 41.96 125.225 41.4C125.225 40.8333 125.321 40.3467 125.515 39.94C125.715 39.5333 125.988 39.22 126.335 39C126.681 38.78 127.075 38.67 127.515 38.67C127.728 38.67 127.935 38.7033 128.135 38.77C128.335 38.83 128.518 38.9233 128.685 39.05C128.858 39.17 129.001 39.3267 129.115 39.52H129.125V36.89H130.365V44H129.195V43.22H129.185C129.078 43.4267 128.938 43.5967 128.765 43.73C128.591 43.8633 128.398 43.96 128.185 44.02C127.971 44.0867 127.748 44.12 127.515 44.12ZM127.845 43.09C128.111 43.09 128.345 43.0267 128.545 42.9C128.745 42.7667 128.901 42.5767 129.015 42.33C129.135 42.0767 129.195 41.7633 129.195 41.39C129.195 41.0233 129.135 40.7167 129.015 40.47C128.901 40.2167 128.741 40.0267 128.535 39.9C128.335 39.7667 128.105 39.7 127.845 39.7C127.585 39.7 127.351 39.7667 127.145 39.9C126.945 40.0267 126.788 40.2167 126.675 40.47C126.561 40.7167 126.505 41.0233 126.505 41.39C126.505 41.7633 126.561 42.0767 126.675 42.33C126.788 42.5767 126.945 42.7667 127.145 42.9C127.351 43.0267 127.585 43.09 127.845 43.09ZM133.34 44.12C132.76 44.12 132.28 43.9967 131.9 43.75C131.52 43.4967 131.273 43.1167 131.16 42.61L132.33 42.35C132.403 42.6567 132.527 42.88 132.7 43.02C132.88 43.16 133.113 43.23 133.4 43.23C133.667 43.23 133.87 43.1767 134.01 43.07C134.15 42.9567 134.22 42.7933 134.22 42.58C134.22 42.4067 134.173 42.2667 134.08 42.16C133.987 42.0467 133.827 41.9567 133.6 41.89L132.62 41.62C132.247 41.52 131.953 41.3533 131.74 41.12C131.527 40.88 131.42 40.58 131.42 40.22C131.42 39.9067 131.503 39.6367 131.67 39.41C131.837 39.1767 132.07 38.9967 132.37 38.87C132.67 38.7367 133.017 38.67 133.41 38.67C133.757 38.67 134.07 38.7167 134.35 38.81C134.63 38.9033 134.863 39.0433 135.05 39.23C135.243 39.41 135.373 39.6433 135.44 39.93L134.3 40.22C134.22 39.9933 134.103 39.83 133.95 39.73C133.797 39.6233 133.603 39.57 133.37 39.57C133.13 39.57 132.947 39.62 132.82 39.72C132.693 39.82 132.63 39.9533 132.63 40.12C132.63 40.2667 132.673 40.3867 132.76 40.48C132.853 40.5733 132.997 40.65 133.19 40.71L134.12 40.96C134.393 41.04 134.63 41.1433 134.83 41.27C135.03 41.39 135.183 41.55 135.29 41.75C135.397 41.95 135.45 42.1933 135.45 42.48C135.45 42.8267 135.36 43.1233 135.18 43.37C135.007 43.61 134.76 43.7967 134.44 43.93C134.127 44.0567 133.76 44.12 133.34 44.12Z" fill="white" fill-opacity="0.8"/>
<g filter="url(#filter0_dd_59_8836)">
<rect x="184.5" y="12" width="36" height="28" rx="8" fill="white" shape-rendering="crispEdges"/>
<path d="M201.628 26.8718H196.667C196.207 26.8718 195.833 26.4987 195.833 26.0384V25.9616C195.833 25.5013 196.207 25.1282 196.667 25.1282H201.628V20.1667C201.628 19.7064 202.001 19.3333 202.462 19.3333H202.539C202.999 19.3333 203.372 19.7064 203.372 20.1667V25.1282H208.333C208.794 25.1282 209.167 25.5013 209.167 25.9616V26.0384C209.167 26.4987 208.794 26.8718 208.333 26.8718H203.372V31.8333C203.372 32.2936 202.999 32.6667 202.539 32.6667H202.462C202.001 32.6667 201.628 32.2936 201.628 31.8333V26.8718Z" fill="black" fill-opacity="0.8"/>
<path fill-rule="evenodd" clip-rule="evenodd" d="M202.462 19.5417C202.116 19.5417 201.837 19.8215 201.837 20.1667V25.3366H196.667C196.322 25.3366 196.042 25.6164 196.042 25.9616V26.0384C196.042 26.3836 196.322 26.6634 196.667 26.6634H201.837V31.8333C201.837 32.1785 202.116 32.4583 202.462 32.4583H202.539C202.884 32.4583 203.164 32.1785 203.164 31.8333V26.6634H208.333C208.679 26.6634 208.958 26.3836 208.958 26.0384V25.9616C208.958 25.6164 208.679 25.3366 208.333 25.3366H203.164V20.1667C203.164 19.8215 202.884 19.5417 202.539 19.5417H202.462ZM201.42 20.1667C201.42 19.5914 201.886 19.125 202.462 19.125H202.539C203.114 19.125 203.58 19.5914 203.58 20.1667V24.9199H208.333C208.909 24.9199 209.375 25.3863 209.375 25.9616V26.0384C209.375 26.6137 208.909 27.0801 208.333 27.0801H203.58V31.8333C203.58 32.4086 203.114 32.875 202.539 32.875H202.462C201.886 32.875 201.42 32.4086 201.42 31.8333V27.0801H196.667C196.091 27.0801 195.625 26.6137 195.625 26.0384V25.9616C195.625 25.3863 196.091 24.9199 196.667 24.9199H201.42V20.1667Z" fill="black" fill-opacity="0.8"/>
</g>
<path d="M279.226 17.47C278.951 17.47 278.728 17.6931 278.728 17.9682V18.9644C278.728 19.2395 278.951 19.4625 279.226 19.4625H286.199C286.475 19.4625 286.698 19.2395 286.698 18.9644V17.9682C286.698 17.6931 286.475 17.47 286.199 17.47H279.226Z" fill="white" fill-opacity="0.8"/>
<path fill-rule="evenodd" clip-rule="evenodd" d="M274.743 9.5C273.642 9.5 272.75 10.3921 272.75 11.4925V24.4438C272.75 25.5443 273.642 26.4363 274.743 26.4363H279.266L281.953 29.6004C282.351 30.0688 283.074 30.0688 283.472 29.6004L286.16 26.4363H290.683C291.783 26.4363 292.675 25.5443 292.675 24.4438V11.4925C292.675 10.3921 291.783 9.5 290.683 9.5H274.743ZM274.743 24.4438V11.4925H290.683V24.4438H285.705C285.412 24.4438 285.134 24.5728 284.945 24.7963L282.713 27.4326L280.48 24.7963C280.291 24.5728 280.013 24.4438 279.72 24.4438H274.743Z" fill="white" fill-opacity="0.8"/>
<path d="M271.132 44V36.95H272.422V44H271.132ZM277.018 44V40.88C277.018 40.4933 276.928 40.2067 276.748 40.02C276.568 39.8333 276.328 39.74 276.028 39.74C275.688 39.74 275.415 39.8533 275.208 40.08C275.008 40.3 274.908 40.6033 274.908 40.99V44H273.668V38.79H274.828V39.49H274.838C274.985 39.23 275.188 39.03 275.448 38.89C275.708 38.7433 276.018 38.67 276.378 38.67C276.752 38.67 277.078 38.7433 277.358 38.89C277.638 39.0367 277.858 39.26 278.018 39.56C278.178 39.86 278.258 40.2467 278.258 40.72V44H277.018ZM281.852 43.09C282.112 43.09 282.342 43.0267 282.542 42.9C282.742 42.7667 282.899 42.5767 283.012 42.33C283.132 42.0767 283.192 41.7633 283.192 41.39C283.192 41.0233 283.132 40.7167 283.012 40.47C282.899 40.2167 282.742 40.0267 282.542 39.9C282.342 39.7667 282.112 39.7 281.852 39.7C281.592 39.7 281.359 39.7667 281.152 39.9C280.952 40.0267 280.792 40.2167 280.672 40.47C280.559 40.7167 280.502 41.0233 280.502 41.39C280.502 41.7633 280.559 42.0767 280.672 42.33C280.786 42.5767 280.946 42.7667 281.152 42.9C281.359 43.0267 281.592 43.09 281.852 43.09ZM279.332 44V36.89H280.572V39.51H280.582C280.696 39.3167 280.836 39.16 281.002 39.04C281.176 38.9133 281.362 38.82 281.562 38.76C281.762 38.7 281.969 38.67 282.182 38.67C282.629 38.67 283.022 38.78 283.362 39C283.709 39.22 283.979 39.5333 284.172 39.94C284.372 40.3467 284.472 40.8333 284.472 41.4C284.472 41.96 284.372 42.4433 284.172 42.85C283.972 43.2567 283.699 43.57 283.352 43.79C283.006 44.01 282.616 44.12 282.182 44.12C281.949 44.12 281.726 44.0867 281.512 44.02C281.299 43.96 281.106 43.8633 280.932 43.73C280.759 43.5967 280.619 43.4267 280.512 43.22H280.502V44H279.332ZM287.836 44.12C287.33 44.12 286.876 44.01 286.476 43.79C286.076 43.57 285.763 43.2567 285.536 42.85C285.31 42.4367 285.196 41.9533 285.196 41.4C285.196 40.84 285.31 40.3567 285.536 39.95C285.763 39.5433 286.076 39.23 286.476 39.01C286.876 38.7833 287.33 38.67 287.836 38.67C288.343 38.67 288.793 38.7833 289.186 39.01C289.586 39.23 289.9 39.5433 290.126 39.95C290.36 40.3567 290.476 40.84 290.476 41.4C290.476 41.9533 290.36 42.4367 290.126 42.85C289.9 43.2567 289.586 43.57 289.186 43.79C288.793 44.01 288.343 44.12 287.836 44.12ZM287.836 43.09C288.096 43.09 288.326 43.0267 288.526 42.9C288.733 42.7733 288.896 42.5867 289.016 42.34C289.136 42.0867 289.196 41.7733 289.196 41.4C289.196 41.02 289.136 40.7067 289.016 40.46C288.896 40.2067 288.733 40.0167 288.526 39.89C288.326 39.7633 288.096 39.7 287.836 39.7C287.576 39.7 287.343 39.7633 287.136 39.89C286.936 40.0167 286.776 40.2067 286.656 40.46C286.536 40.7067 286.476 41.02 286.476 41.4C286.476 41.7733 286.533 42.0867 286.646 42.34C286.766 42.5867 286.93 42.7733 287.136 42.9C287.343 43.0267 287.576 43.09 287.836 43.09ZM290.592 44L292.382 41.27L290.782 38.79H292.182L293.252 40.6H293.262L294.322 38.79H295.712L294.122 41.25L295.932 44H294.552L293.272 41.91H293.262L291.982 44H290.592Z" fill="white" fill-opacity="0.8"/>
<path fill-rule="evenodd" clip-rule="evenodd" d="M360.417 18.1906C362.317 18.1906 363.857 16.6502 363.857 14.75C363.857 12.8498 362.317 11.3094 360.417 11.3094C358.516 11.3094 356.976 12.8498 356.976 14.75C356.976 16.6502 358.516 18.1906 360.417 18.1906ZM360.417 20C363.316 20 365.667 17.6495 365.667 14.75C365.667 11.8505 363.316 9.5 360.417 9.5C357.517 9.5 355.167 11.8505 355.167 14.75C355.167 17.6495 357.517 20 360.417 20Z" fill="white" fill-opacity="0.8"/>
<path fill-rule="evenodd" clip-rule="evenodd" d="M355.778 25.2808C354.473 26.4187 353.738 27.875 353.738 29.2432C353.738 29.7429 353.333 30.1479 352.833 30.1479C352.334 30.1479 351.929 29.7429 351.929 29.2432C351.929 27.2339 352.989 25.3126 354.588 23.9174C356.196 22.5145 358.41 21.5834 360.855 21.5834C363.3 21.5834 365.514 22.5145 367.122 23.9174C368.721 25.3126 369.781 27.2339 369.781 29.2432C369.781 29.7429 369.376 30.1479 368.877 30.1479C368.377 30.1479 367.972 29.7429 367.972 29.2432C367.972 27.875 367.237 26.4187 365.932 25.2808C364.637 24.1505 362.84 23.3928 360.855 23.3928C358.87 23.3928 357.073 24.1505 355.778 25.2808Z" fill="white" fill-opacity="0.8"/>
<path d="M346.924 44V36.95H349.794C350.314 36.95 350.758 37.0333 351.124 37.2C351.491 37.3667 351.771 37.6033 351.964 37.91C352.158 38.21 352.254 38.5733 352.254 39C352.254 39.4267 352.158 39.7933 351.964 40.1C351.771 40.4067 351.491 40.6433 351.124 40.81C350.758 40.9767 350.314 41.06 349.794 41.06H347.884V40H349.694C350.101 40 350.414 39.92 350.634 39.76C350.854 39.5933 350.964 39.34 350.964 39C350.964 38.66 350.854 38.41 350.634 38.25C350.414 38.09 350.101 38.01 349.694 38.01H347.854L348.214 37.64V44H346.924ZM353.015 44V38.79H354.175V39.47H354.185C354.292 39.23 354.455 39.0367 354.675 38.89C354.902 38.7433 355.168 38.67 355.475 38.67C355.535 38.67 355.595 38.6733 355.655 38.68C355.715 38.6867 355.768 38.6967 355.815 38.71V39.87C355.742 39.8567 355.672 39.8467 355.605 39.84C355.538 39.8333 355.462 39.83 355.375 39.83C355.168 39.83 354.978 39.8767 354.805 39.97C354.638 40.0633 354.505 40.2067 354.405 40.4C354.305 40.5933 354.255 40.8433 354.255 41.15V44H353.015ZM358.814 44.12C358.307 44.12 357.854 44.01 357.454 43.79C357.054 43.57 356.741 43.2567 356.514 42.85C356.287 42.4367 356.174 41.9533 356.174 41.4C356.174 40.84 356.287 40.3567 356.514 39.95C356.741 39.5433 357.054 39.23 357.454 39.01C357.854 38.7833 358.307 38.67 358.814 38.67C359.321 38.67 359.771 38.7833 360.164 39.01C360.564 39.23 360.877 39.5433 361.104 39.95C361.337 40.3567 361.454 40.84 361.454 41.4C361.454 41.9533 361.337 42.4367 361.104 42.85C360.877 43.2567 360.564 43.57 360.164 43.79C359.771 44.01 359.321 44.12 358.814 44.12ZM358.814 43.09C359.074 43.09 359.304 43.0267 359.504 42.9C359.711 42.7733 359.874 42.5867 359.994 42.34C360.114 42.0867 360.174 41.7733 360.174 41.4C360.174 41.02 360.114 40.7067 359.994 40.46C359.874 40.2067 359.711 40.0167 359.504 39.89C359.304 39.7633 359.074 39.7 358.814 39.7C358.554 39.7 358.321 39.7633 358.114 39.89C357.914 40.0167 357.754 40.2067 357.634 40.46C357.514 40.7067 357.454 41.02 357.454 41.4C357.454 41.7733 357.511 42.0867 357.624 42.34C357.744 42.5867 357.907 42.7733 358.114 42.9C358.321 43.0267 358.554 43.09 358.814 43.09ZM362.795 44V38.34C362.795 37.8467 362.938 37.4567 363.225 37.17C363.518 36.8767 363.911 36.73 364.405 36.73C364.591 36.73 364.741 36.7433 364.855 36.77C364.975 36.79 365.105 36.8233 365.245 36.87V37.78C365.145 37.74 365.051 37.71 364.965 37.69C364.885 37.67 364.795 37.66 364.695 37.66C364.488 37.66 364.325 37.7233 364.205 37.85C364.091 37.97 364.035 38.1433 364.035 38.37V44H362.795ZM361.855 39.75V38.79H365.135V39.75H361.855ZM365.994 44V38.79H367.234V44H365.994ZM366.624 38.14C366.404 38.14 366.22 38.0667 366.074 37.92C365.934 37.7733 365.864 37.5967 365.864 37.39C365.864 37.1833 365.934 37.0067 366.074 36.86C366.22 36.7133 366.404 36.64 366.624 36.64C366.837 36.64 367.014 36.7133 367.154 36.86C367.3 37.0067 367.374 37.1833 367.374 37.39C367.374 37.5967 367.3 37.7733 367.154 37.92C367.014 38.0667 366.837 38.14 366.624 38.14ZM368.367 44V36.89H369.607V44H368.367ZM373.11 44.12C372.583 44.12 372.123 44.0067 371.73 43.78C371.343 43.5467 371.043 43.2233 370.83 42.81C370.623 42.3967 370.52 41.9133 370.52 41.36C370.52 40.8267 370.63 40.36 370.85 39.96C371.07 39.5533 371.37 39.2367 371.75 39.01C372.136 38.7833 372.576 38.67 373.07 38.67C373.556 38.67 373.98 38.77 374.34 38.97C374.7 39.17 374.98 39.4567 375.18 39.83C375.38 40.1967 375.48 40.6333 375.48 41.14C375.48 41.24 375.476 41.34 375.47 41.44C375.463 41.54 375.456 41.6233 375.45 41.69H371.14V40.86H374.66L374.28 41.01C374.28 40.7033 374.23 40.4467 374.13 40.24C374.036 40.0267 373.896 39.8667 373.71 39.76C373.523 39.6533 373.296 39.6 373.03 39.6C372.783 39.6 372.563 39.6533 372.37 39.76C372.176 39.8667 372.023 40.0333 371.91 40.26C371.803 40.48 371.75 40.7633 371.75 41.11V41.55C371.75 42.0367 371.866 42.4233 372.1 42.71C372.333 42.99 372.686 43.13 373.16 43.13C373.446 43.13 373.693 43.07 373.9 42.95C374.113 42.8233 374.286 42.63 374.42 42.37L375.37 42.85C375.243 43.1233 375.07 43.3567 374.85 43.55C374.63 43.7367 374.373 43.88 374.08 43.98C373.793 44.0733 373.47 44.12 373.11 44.12Z" fill="white" fill-opacity="0.8"/>
<defs>
<filter id="filter0_dd_59_8836" x="181" y="12" width="43" height="28" filterUnits="userSpaceOnUse" color-interpolation-filters="sRGB">
<feFlood flood-opacity="0" result="BackgroundImageFix"/>
<feColorMatrix in="SourceAlpha" type="matrix" values="0 0 0 0 0 0 0 0 0 0 0 0 0 0 0 0 0 0 127 0" result="hardAlpha"/>
<feOffset dx="3.5"/>
<feComposite in2="hardAlpha" operator="out"/>
<feColorMatrix type="matrix" values="0 0 0 0 0.980392 0 0 0 0 0.176471 0 0 0 0 0.423529 0 0 0 1 0"/>
<feBlend mode="normal" in2="BackgroundImageFix" result="effect1_dropShadow_59_8836"/>
<feColorMatrix in="SourceAlpha" type="matrix" values="0 0 0 0 0 0 0 0 0 0 0 0 0 0 0 0 0 0 127 0" result="hardAlpha"/>
<feOffset dx="-3.5"/>
<feComposite in2="hardAlpha" operator="out"/>
<feColorMatrix type="matrix" values="0 0 0 0 0.12549 0 0 0 0 0.835294 0 0 0 0 0.92549 0 0 0 1 0"/>
<feBlend mode="normal" in2="effect1_dropShadow_59_8836" result="effect2_dropShadow_59_8836"/>
<feBlend mode="normal" in="SourceGraphic" in2="effect2_dropShadow_59_8836" result="shape"/>
</filter>
</defs>
</svg>
