<svg width="402" height="65" viewBox="0 0 402 65" fill="none" xmlns="http://www.w3.org/2000/svg">
<path fill-rule="evenodd" clip-rule="evenodd" d="M43.8876 31.2125C43.7857 31.6704 43.338 32 42.818 32L23.1821 32C22.736 32 22.3349 31.7561 22.1692 31.3842L21.0783 28.9352C20.8546 28.4329 21.1267 27.8628 21.686 27.6619C22.2454 27.461 22.8803 27.7053 23.104 28.2076L23.9206 30.0408H41.9236L42.2937 28.3793C42.4118 27.8488 42.9866 27.5048 43.5773 27.6109C44.1681 27.717 44.5512 28.233 44.4331 28.7635L43.8876 31.2125Z" fill="white"/>
<path fill-rule="evenodd" clip-rule="evenodd" d="M22.1472 13.078C22.2956 12.678 22.7125 12.4082 23.1821 12.4082H42.8179C43.2875 12.4082 43.7044 12.678 43.8528 13.078L44.9437 16.0168C45.1342 16.53 44.8253 17.0848 44.2538 17.2559C43.6822 17.427 43.0644 17.1496 42.8739 16.6363L42.0317 14.3674H23.9683L23.1261 16.6363C22.9356 17.1496 22.3178 17.427 21.7462 17.2559C21.1747 17.0848 20.8658 16.53 21.0563 16.0168L22.1472 13.078Z" fill="white"/>
<path fill-rule="evenodd" clip-rule="evenodd" d="M29.0576 8.20639C29.5332 7.87424 30.2186 7.95118 30.5884 8.37822L33.5454 11.7922L36.5024 8.37822C36.8723 7.95118 37.5577 7.87424 38.0333 8.20639C38.5088 8.53854 38.5945 9.154 38.2246 9.58104L34.4065 13.9892C34.1999 14.2278 33.8821 14.3674 33.5454 14.3674C33.2088 14.3674 32.891 14.2278 32.6844 13.9892L28.8663 9.58104C28.4964 9.154 28.5821 8.53854 29.0576 8.20639Z" fill="white"/>
<path d="M39.3474 19.2653C39.3474 18.9948 39.5916 18.7755 39.8928 18.7755H44.3196C44.6208 18.7755 44.865 18.9948 44.865 19.2653V19.8257C44.865 20.0962 44.6208 20.3155 44.3196 20.3155H41.2979V21.8965H44.2869C44.5881 21.8965 44.8323 22.1158 44.8323 22.3863V22.8996C44.8323 23.1701 44.5881 23.3894 44.2869 23.3894H41.2979V24.994H44.3196C44.6208 24.994 44.865 25.2133 44.865 25.4838V26.5339H39.8928C39.5916 26.5339 39.3474 26.3146 39.3474 26.0441V19.2653Z" fill="white"/>
<path d="M35.5649 26.2084C35.4875 26.4036 35.2818 26.5339 35.0511 26.5339H33.6083C33.3776 26.5339 33.1718 26.4036 33.0945 26.2084L30.4066 19.4296C30.2801 19.1107 30.5435 18.7755 30.9204 18.7755H31.9555C32.1924 18.7755 32.4022 18.9129 32.4747 19.1154L34.3297 24.2946L36.1846 19.1154C36.2572 18.9129 36.467 18.7755 36.7039 18.7755H37.7389C38.1159 18.7755 38.3792 19.1107 38.2528 19.4296L35.5649 26.2084Z" fill="white"/>
<path d="M27.3065 19.2653C27.3065 18.9948 27.5507 18.7755 27.8519 18.7755H28.7181C29.0193 18.7755 29.2635 18.9948 29.2635 19.2653V26.0441C29.2635 26.3146 29.0193 26.5339 28.7181 26.5339H27.8519C27.5507 26.5339 27.3065 26.3146 27.3065 26.0441V19.2653Z" fill="white"/>
<path d="M21.0003 19.2653C21.0003 18.9948 21.2445 18.7755 21.5457 18.7755H22.4119C22.7131 18.7755 22.9573 18.9948 22.9573 19.2653V24.994H25.5471C25.8483 24.994 26.0925 25.2133 26.0925 25.4838V26.0441C26.0925 26.3146 25.8483 26.5339 25.5471 26.5339H21.5457C21.2445 26.5339 21.0003 26.3146 21.0003 26.0441V19.2653Z" fill="white"/>
<path d="M55.2636 27V16.425H62.0736V18.39H56.5236L57.5736 17.07V26.37L56.5236 25.035H62.1036V27H55.2636ZM56.7786 22.365V20.415H61.1136V22.365H56.7786ZM62.8478 27L65.4578 22.905L63.1028 19.125H65.6078L67.0328 21.705H67.0478L68.4728 19.125H70.9628L68.6228 22.845L71.2628 27H68.7878L67.0928 24H67.0778L65.3078 27H62.8478ZM72.2515 30V19.125H74.3365V20.175H74.3515C74.5115 19.895 74.7115 19.665 74.9515 19.485C75.2015 19.305 75.4815 19.17 75.7915 19.08C76.1015 18.99 76.4315 18.945 76.7815 18.945C77.4415 18.945 78.0315 19.115 78.5515 19.455C79.0715 19.785 79.4815 20.26 79.7815 20.88C80.0815 21.49 80.2315 22.215 80.2315 23.055C80.2315 23.895 80.0815 24.625 79.7815 25.245C79.4915 25.855 79.0865 26.33 78.5665 26.67C78.0465 27.01 77.4515 27.18 76.7815 27.18C76.4615 27.18 76.1565 27.135 75.8665 27.045C75.5865 26.965 75.3265 26.84 75.0865 26.67C74.8465 26.5 74.6465 26.295 74.4865 26.055H74.4715V30H72.2515ZM76.1515 25.38C76.5115 25.38 76.8215 25.29 77.0815 25.11C77.3515 24.93 77.5615 24.67 77.7115 24.33C77.8715 23.98 77.9515 23.56 77.9515 23.07C77.9515 22.57 77.8715 22.15 77.7115 21.81C77.5615 21.47 77.3515 21.21 77.0815 21.03C76.8215 20.85 76.5115 20.76 76.1515 20.76C75.7815 20.76 75.4615 20.85 75.1915 21.03C74.9215 21.21 74.7115 21.47 74.5615 21.81C74.4115 22.15 74.3365 22.57 74.3365 23.07C74.3365 23.56 74.4115 23.98 74.5615 24.33C74.7115 24.67 74.9215 24.93 75.1915 25.11C75.4715 25.29 75.7915 25.38 76.1515 25.38ZM81.5094 27V16.335H83.7294V27H81.5094ZM89.0833 27.18C88.2833 27.18 87.5733 27.01 86.9533 26.67C86.3433 26.33 85.8633 25.855 85.5133 25.245C85.1633 24.625 84.9883 23.9 84.9883 23.07C84.9883 22.23 85.1633 21.505 85.5133 20.895C85.8633 20.275 86.3433 19.795 86.9533 19.455C87.5733 19.115 88.2833 18.945 89.0833 18.945C89.8933 18.945 90.6033 19.115 91.2133 19.455C91.8333 19.795 92.3183 20.275 92.6683 20.895C93.0183 21.505 93.1933 22.23 93.1933 23.07C93.1933 23.9 93.0183 24.625 92.6683 25.245C92.3183 25.855 91.8333 26.33 91.2133 26.67C90.6033 27.01 89.8933 27.18 89.0833 27.18ZM89.0833 25.38C89.4433 25.38 89.7583 25.295 90.0283 25.125C90.2983 24.945 90.5083 24.685 90.6583 24.345C90.8183 23.995 90.8983 23.57 90.8983 23.07C90.8983 22.56 90.8183 22.135 90.6583 21.795C90.5083 21.445 90.2983 21.185 90.0283 21.015C89.7583 20.845 89.4433 20.76 89.0833 20.76C88.7333 20.76 88.4183 20.845 88.1383 21.015C87.8683 21.185 87.6533 21.445 87.4933 21.795C87.3433 22.135 87.2683 22.56 87.2683 23.07C87.2683 23.57 87.3433 23.995 87.4933 24.345C87.6533 24.685 87.8683 24.945 88.1383 25.125C88.4183 25.295 88.7333 25.38 89.0833 25.38ZM94.4732 27V19.125H96.5432V20.085H96.5582C96.7182 19.735 96.9632 19.46 97.2932 19.26C97.6332 19.05 98.0332 18.945 98.4932 18.945C98.5832 18.945 98.6682 18.95 98.7482 18.96C98.8382 18.97 98.9132 18.985 98.9732 19.005V21.09C98.8632 21.06 98.7482 21.04 98.6282 21.03C98.5182 21.02 98.3982 21.015 98.2682 21.015C97.9582 21.015 97.6832 21.085 97.4432 21.225C97.2032 21.355 97.0182 21.56 96.8882 21.84C96.7582 22.11 96.6932 22.47 96.6932 22.92V27H94.4732ZM103.628 27.18C102.808 27.18 102.093 27.01 101.483 26.67C100.883 26.32 100.418 25.83 100.088 25.2C99.7578 24.56 99.5928 23.825 99.5928 22.995C99.5928 22.195 99.7628 21.495 100.103 20.895C100.443 20.285 100.908 19.81 101.498 19.47C102.098 19.12 102.778 18.945 103.538 18.945C104.298 18.945 104.958 19.1 105.518 19.41C106.088 19.72 106.528 20.16 106.838 20.73C107.148 21.3 107.303 21.975 107.303 22.755C107.303 22.895 107.298 23.05 107.288 23.22C107.278 23.38 107.263 23.51 107.243 23.61H100.643V22.2H105.818L105.173 22.425C105.173 22.015 105.108 21.67 104.978 21.39C104.848 21.11 104.658 20.9 104.408 20.76C104.158 20.61 103.853 20.535 103.493 20.535C103.153 20.535 102.848 20.61 102.578 20.76C102.318 20.9 102.113 21.115 101.963 21.405C101.823 21.695 101.753 22.055 101.753 22.485V23.43C101.753 24.03 101.913 24.52 102.233 24.9C102.563 25.27 103.048 25.455 103.688 25.455C104.088 25.455 104.438 25.37 104.738 25.2C105.048 25.03 105.293 24.77 105.473 24.42L107.138 25.29C106.938 25.7 106.663 26.045 106.313 26.325C105.973 26.605 105.573 26.82 105.113 26.97C104.663 27.11 104.168 27.18 103.628 27.18Z" fill="url(#paint0_linear_59_8819)" fill-opacity="0.75"/>
<path d="M119.401 27V16.425H121.711V26.37L120.166 24.945H126.016V27H119.401ZM130.53 27.18C129.73 27.18 129.02 27.01 128.4 26.67C127.79 26.33 127.31 25.855 126.96 25.245C126.61 24.625 126.435 23.9 126.435 23.07C126.435 22.23 126.61 21.505 126.96 20.895C127.31 20.275 127.79 19.795 128.4 19.455C129.02 19.115 129.73 18.945 130.53 18.945C131.34 18.945 132.05 19.115 132.66 19.455C133.28 19.795 133.765 20.275 134.115 20.895C134.465 21.505 134.64 22.23 134.64 23.07C134.64 23.9 134.465 24.625 134.115 25.245C133.765 25.855 133.28 26.33 132.66 26.67C132.05 27.01 131.34 27.18 130.53 27.18ZM130.53 25.38C130.89 25.38 131.205 25.295 131.475 25.125C131.745 24.945 131.955 24.685 132.105 24.345C132.265 23.995 132.345 23.57 132.345 23.07C132.345 22.56 132.265 22.135 132.105 21.795C131.955 21.445 131.745 21.185 131.475 21.015C131.205 20.845 130.89 20.76 130.53 20.76C130.18 20.76 129.865 20.845 129.585 21.015C129.315 21.185 129.1 21.445 128.94 21.795C128.79 22.135 128.715 22.56 128.715 23.07C128.715 23.57 128.79 23.995 128.94 24.345C129.1 24.685 129.315 24.945 129.585 25.125C129.865 25.295 130.18 25.38 130.53 25.38ZM139.58 27.18C138.81 27.18 138.125 27.015 137.525 26.685C136.935 26.345 136.465 25.865 136.115 25.245C135.775 24.625 135.605 23.895 135.605 23.055C135.605 22.215 135.775 21.49 136.115 20.88C136.465 20.26 136.935 19.785 137.525 19.455C138.125 19.115 138.81 18.945 139.58 18.945C140.55 18.945 141.335 19.155 141.935 19.575C142.535 19.985 142.96 20.57 143.21 21.33L141.17 21.96C141.02 21.51 140.81 21.2 140.54 21.03C140.28 20.85 139.965 20.76 139.595 20.76C139.275 20.76 138.985 20.845 138.725 21.015C138.465 21.185 138.26 21.44 138.11 21.78C137.96 22.12 137.885 22.545 137.885 23.055C137.885 23.565 137.96 23.995 138.11 24.345C138.26 24.685 138.465 24.945 138.725 25.125C138.985 25.295 139.275 25.38 139.595 25.38C139.965 25.38 140.28 25.29 140.54 25.11C140.81 24.92 141.025 24.6 141.185 24.15L143.21 24.78C142.96 25.54 142.535 26.13 141.935 26.55C141.335 26.97 140.55 27.18 139.58 27.18ZM146.64 27.18C145.83 27.18 145.175 26.975 144.675 26.565C144.175 26.145 143.925 25.595 143.925 24.915C143.925 24.235 144.145 23.685 144.585 23.265C145.035 22.845 145.675 22.56 146.505 22.41L149.475 21.825V23.175L147.24 23.67C146.88 23.75 146.605 23.87 146.415 24.03C146.235 24.18 146.145 24.4 146.145 24.69C146.145 24.97 146.245 25.19 146.445 25.35C146.645 25.51 146.9 25.59 147.21 25.59C147.54 25.59 147.815 25.525 148.035 25.395C148.265 25.255 148.44 25.07 148.56 24.84C148.68 24.6 148.74 24.32 148.74 24V21.825C148.74 21.425 148.64 21.125 148.44 20.925C148.24 20.715 147.945 20.61 147.555 20.61C147.195 20.61 146.905 20.7 146.685 20.88C146.465 21.06 146.31 21.325 146.22 21.675L144.12 21.255C144.29 20.525 144.685 19.96 145.305 19.56C145.935 19.15 146.71 18.945 147.63 18.945C148.76 18.945 149.595 19.215 150.135 19.755C150.685 20.295 150.96 21.04 150.96 21.99V25.515L151.5 27H149.25L148.935 26.085H148.905C148.675 26.435 148.365 26.705 147.975 26.895C147.595 27.085 147.15 27.18 146.64 27.18ZM152.575 27V16.335H154.795V27H152.575Z" fill="white" fill-opacity="0.75"/>
<path d="M171.042 27.255C170.242 27.255 169.527 27.135 168.897 26.895C168.277 26.645 167.767 26.27 167.367 25.77C166.967 25.26 166.702 24.615 166.572 23.835L168.852 23.31C168.932 23.78 169.072 24.175 169.272 24.495C169.482 24.805 169.737 25.04 170.037 25.2C170.347 25.35 170.687 25.425 171.057 25.425C171.407 25.425 171.697 25.37 171.927 25.26C172.167 25.15 172.347 24.995 172.467 24.795C172.597 24.585 172.662 24.34 172.662 24.06C172.662 23.7 172.562 23.41 172.362 23.19C172.162 22.97 171.817 22.79 171.327 22.65L169.647 22.14C168.897 21.93 168.297 21.575 167.847 21.075C167.397 20.575 167.172 19.97 167.172 19.26C167.172 18.65 167.327 18.115 167.637 17.655C167.947 17.185 168.382 16.82 168.942 16.56C169.512 16.3 170.187 16.17 170.967 16.17C171.687 16.17 172.322 16.28 172.872 16.5C173.422 16.71 173.872 17.02 174.222 17.43C174.572 17.83 174.802 18.31 174.912 18.87L172.722 19.305C172.602 18.835 172.392 18.49 172.092 18.27C171.792 18.05 171.417 17.94 170.967 17.94C170.557 17.94 170.222 18.04 169.962 18.24C169.712 18.43 169.587 18.7 169.587 19.05C169.587 19.34 169.682 19.585 169.872 19.785C170.062 19.975 170.352 20.13 170.742 20.25L172.602 20.805C173.392 21.045 174.002 21.42 174.432 21.93C174.862 22.43 175.077 23.07 175.077 23.85C175.077 24.53 174.917 25.125 174.597 25.635C174.277 26.145 173.817 26.545 173.217 26.835C172.617 27.115 171.892 27.255 171.042 27.255ZM176.469 27V16.335H178.689V19.995H178.704C178.914 19.665 179.199 19.41 179.559 19.23C179.919 19.04 180.339 18.945 180.819 18.945C181.389 18.945 181.889 19.055 182.319 19.275C182.749 19.495 183.084 19.84 183.324 20.31C183.574 20.77 183.699 21.365 183.699 22.095V27H181.479V22.41C181.479 21.88 181.359 21.485 181.119 21.225C180.879 20.965 180.559 20.835 180.159 20.835C179.709 20.835 179.349 20.98 179.079 21.27C178.819 21.56 178.689 21.97 178.689 22.5V27H176.469ZM188.98 27.18C188.18 27.18 187.47 27.01 186.85 26.67C186.24 26.33 185.76 25.855 185.41 25.245C185.06 24.625 184.885 23.9 184.885 23.07C184.885 22.23 185.06 21.505 185.41 20.895C185.76 20.275 186.24 19.795 186.85 19.455C187.47 19.115 188.18 18.945 188.98 18.945C189.79 18.945 190.5 19.115 191.11 19.455C191.73 19.795 192.215 20.275 192.565 20.895C192.915 21.505 193.09 22.23 193.09 23.07C193.09 23.9 192.915 24.625 192.565 25.245C192.215 25.855 191.73 26.33 191.11 26.67C190.5 27.01 189.79 27.18 188.98 27.18ZM188.98 25.38C189.34 25.38 189.655 25.295 189.925 25.125C190.195 24.945 190.405 24.685 190.555 24.345C190.715 23.995 190.795 23.57 190.795 23.07C190.795 22.56 190.715 22.135 190.555 21.795C190.405 21.445 190.195 21.185 189.925 21.015C189.655 20.845 189.34 20.76 188.98 20.76C188.63 20.76 188.315 20.845 188.035 21.015C187.765 21.185 187.55 21.445 187.39 21.795C187.24 22.135 187.165 22.56 187.165 23.07C187.165 23.57 187.24 23.995 187.39 24.345C187.55 24.685 187.765 24.945 188.035 25.125C188.315 25.295 188.63 25.38 188.98 25.38ZM194.37 30V19.125H196.455V20.175H196.47C196.63 19.895 196.83 19.665 197.07 19.485C197.32 19.305 197.6 19.17 197.91 19.08C198.22 18.99 198.55 18.945 198.9 18.945C199.56 18.945 200.15 19.115 200.67 19.455C201.19 19.785 201.6 20.26 201.9 20.88C202.2 21.49 202.35 22.215 202.35 23.055C202.35 23.895 202.2 24.625 201.9 25.245C201.61 25.855 201.205 26.33 200.685 26.67C200.165 27.01 199.57 27.18 198.9 27.18C198.58 27.18 198.275 27.135 197.985 27.045C197.705 26.965 197.445 26.84 197.205 26.67C196.965 26.5 196.765 26.295 196.605 26.055H196.59V30H194.37ZM198.27 25.38C198.63 25.38 198.94 25.29 199.2 25.11C199.47 24.93 199.68 24.67 199.83 24.33C199.99 23.98 200.07 23.56 200.07 23.07C200.07 22.57 199.99 22.15 199.83 21.81C199.68 21.47 199.47 21.21 199.2 21.03C198.94 20.85 198.63 20.76 198.27 20.76C197.9 20.76 197.58 20.85 197.31 21.03C197.04 21.21 196.83 21.47 196.68 21.81C196.53 22.15 196.455 22.57 196.455 23.07C196.455 23.56 196.53 23.98 196.68 24.33C196.83 24.67 197.04 24.93 197.31 25.11C197.59 25.29 197.91 25.38 198.27 25.38Z" fill="white" fill-opacity="0.75"/>
<path d="M213.981 27V16.425H220.596V18.39H215.241L216.291 17.07V27H213.981ZM215.496 22.56V20.58H219.786V22.56H215.496ZM224.95 27.18C224.15 27.18 223.44 27.01 222.82 26.67C222.21 26.33 221.73 25.855 221.38 25.245C221.03 24.625 220.855 23.9 220.855 23.07C220.855 22.23 221.03 21.505 221.38 20.895C221.73 20.275 222.21 19.795 222.82 19.455C223.44 19.115 224.15 18.945 224.95 18.945C225.76 18.945 226.47 19.115 227.08 19.455C227.7 19.795 228.185 20.275 228.535 20.895C228.885 21.505 229.06 22.23 229.06 23.07C229.06 23.9 228.885 24.625 228.535 25.245C228.185 25.855 227.7 26.33 227.08 26.67C226.47 27.01 225.76 27.18 224.95 27.18ZM224.95 25.38C225.31 25.38 225.625 25.295 225.895 25.125C226.165 24.945 226.375 24.685 226.525 24.345C226.685 23.995 226.765 23.57 226.765 23.07C226.765 22.56 226.685 22.135 226.525 21.795C226.375 21.445 226.165 21.185 225.895 21.015C225.625 20.845 225.31 20.76 224.95 20.76C224.6 20.76 224.285 20.845 224.005 21.015C223.735 21.185 223.52 21.445 223.36 21.795C223.21 22.135 223.135 22.56 223.135 23.07C223.135 23.57 223.21 23.995 223.36 24.345C223.52 24.685 223.735 24.945 224.005 25.125C224.285 25.295 224.6 25.38 224.95 25.38ZM230.339 27V16.335H232.559V27H230.339ZM234.133 27V16.335H236.353V27H234.133ZM241.707 27.18C240.907 27.18 240.197 27.01 239.577 26.67C238.967 26.33 238.487 25.855 238.137 25.245C237.787 24.625 237.612 23.9 237.612 23.07C237.612 22.23 237.787 21.505 238.137 20.895C238.487 20.275 238.967 19.795 239.577 19.455C240.197 19.115 240.907 18.945 241.707 18.945C242.517 18.945 243.227 19.115 243.837 19.455C244.457 19.795 244.942 20.275 245.292 20.895C245.642 21.505 245.817 22.23 245.817 23.07C245.817 23.9 245.642 24.625 245.292 25.245C244.942 25.855 244.457 26.33 243.837 26.67C243.227 27.01 242.517 27.18 241.707 27.18ZM241.707 25.38C242.067 25.38 242.382 25.295 242.652 25.125C242.922 24.945 243.132 24.685 243.282 24.345C243.442 23.995 243.522 23.57 243.522 23.07C243.522 22.56 243.442 22.135 243.282 21.795C243.132 21.445 242.922 21.185 242.652 21.015C242.382 20.845 242.067 20.76 241.707 20.76C241.357 20.76 241.042 20.845 240.762 21.015C240.492 21.185 240.277 21.445 240.117 21.795C239.967 22.135 239.892 22.56 239.892 23.07C239.892 23.57 239.967 23.995 240.117 24.345C240.277 24.685 240.492 24.945 240.762 25.125C241.042 25.295 241.357 25.38 241.707 25.38ZM248.087 27L246.587 19.125H248.822L249.737 25.605H249.752L250.817 19.125H253.757L254.837 25.605H254.852L255.767 19.125H258.002L256.487 27H253.352L252.302 20.535H252.287L251.222 27H248.087ZM259.094 27V19.125H261.314V27H259.094ZM260.204 18.3C259.834 18.3 259.524 18.175 259.274 17.925C259.034 17.675 258.914 17.375 258.914 17.025C258.914 16.675 259.034 16.38 259.274 16.14C259.524 15.89 259.834 15.765 260.204 15.765C260.574 15.765 260.879 15.89 261.119 16.14C261.359 16.38 261.479 16.675 261.479 17.025C261.479 17.375 261.359 17.675 261.119 17.925C260.879 18.175 260.574 18.3 260.204 18.3ZM267.898 27V22.41C267.898 21.88 267.778 21.485 267.538 21.225C267.298 20.965 266.978 20.835 266.578 20.835C266.128 20.835 265.768 20.98 265.498 21.27C265.238 21.56 265.108 21.97 265.108 22.5V27H262.888V19.125H264.958V20.07H264.973C265.193 19.71 265.493 19.435 265.873 19.245C266.263 19.045 266.718 18.945 267.238 18.945C267.808 18.945 268.308 19.055 268.738 19.275C269.168 19.495 269.503 19.84 269.743 20.31C269.993 20.77 270.118 21.365 270.118 22.095V27H267.898ZM275.143 30.18C274.103 30.18 273.248 29.985 272.578 29.595C271.918 29.205 271.473 28.61 271.243 27.81L273.238 27.21C273.348 27.6 273.553 27.9 273.853 28.11C274.163 28.33 274.578 28.44 275.098 28.44C275.718 28.44 276.188 28.275 276.508 27.945C276.838 27.625 277.003 27.15 277.003 26.52V25.575H276.973C276.823 25.835 276.628 26.055 276.388 26.235C276.148 26.405 275.883 26.535 275.593 26.625C275.303 26.705 274.993 26.745 274.663 26.745C274.003 26.745 273.413 26.58 272.893 26.25C272.383 25.92 271.978 25.465 271.678 24.885C271.378 24.295 271.228 23.615 271.228 22.845C271.228 22.065 271.378 21.385 271.678 20.805C271.978 20.225 272.388 19.77 272.908 19.44C273.428 19.11 274.018 18.945 274.678 18.945C275.008 18.945 275.318 18.99 275.608 19.08C275.908 19.16 276.178 19.29 276.418 19.47C276.658 19.64 276.858 19.86 277.018 20.13H277.033V19.125H279.208V26.355C279.208 27.195 279.048 27.895 278.728 28.455C278.408 29.025 277.948 29.455 277.348 29.745C276.748 30.035 276.013 30.18 275.143 30.18ZM275.308 24.975C275.678 24.975 275.993 24.89 276.253 24.72C276.523 24.55 276.733 24.31 276.883 24C277.033 23.68 277.108 23.295 277.108 22.845C277.108 22.395 277.033 22.015 276.883 21.705C276.733 21.385 276.523 21.145 276.253 20.985C275.993 20.815 275.678 20.73 275.308 20.73C274.958 20.73 274.648 20.815 274.378 20.985C274.108 21.145 273.893 21.385 273.733 21.705C273.583 22.015 273.508 22.395 273.508 22.845C273.508 23.295 273.583 23.68 273.733 24C273.893 24.31 274.108 24.55 274.378 24.72C274.648 24.89 274.958 24.975 275.308 24.975Z" fill="white" fill-opacity="0.75"/>
<path d="M291.084 27V16.425H297.699V18.39H292.344L293.394 17.07V27H291.084ZM292.599 22.56V20.58H296.889V22.56H292.599ZM302.052 27.18C301.252 27.18 300.542 27.01 299.922 26.67C299.312 26.33 298.832 25.855 298.482 25.245C298.132 24.625 297.957 23.9 297.957 23.07C297.957 22.23 298.132 21.505 298.482 20.895C298.832 20.275 299.312 19.795 299.922 19.455C300.542 19.115 301.252 18.945 302.052 18.945C302.862 18.945 303.572 19.115 304.182 19.455C304.802 19.795 305.287 20.275 305.637 20.895C305.987 21.505 306.162 22.23 306.162 23.07C306.162 23.9 305.987 24.625 305.637 25.245C305.287 25.855 304.802 26.33 304.182 26.67C303.572 27.01 302.862 27.18 302.052 27.18ZM302.052 25.38C302.412 25.38 302.727 25.295 302.997 25.125C303.267 24.945 303.477 24.685 303.627 24.345C303.787 23.995 303.867 23.57 303.867 23.07C303.867 22.56 303.787 22.135 303.627 21.795C303.477 21.445 303.267 21.185 302.997 21.015C302.727 20.845 302.412 20.76 302.052 20.76C301.702 20.76 301.387 20.845 301.107 21.015C300.837 21.185 300.622 21.445 300.462 21.795C300.312 22.135 300.237 22.56 300.237 23.07C300.237 23.57 300.312 23.995 300.462 24.345C300.622 24.685 300.837 24.945 301.107 25.125C301.387 25.295 301.702 25.38 302.052 25.38ZM307.442 27V19.125H309.512V20.085H309.527C309.687 19.735 309.932 19.46 310.262 19.26C310.602 19.05 311.002 18.945 311.462 18.945C311.552 18.945 311.637 18.95 311.717 18.96C311.807 18.97 311.882 18.985 311.942 19.005V21.09C311.832 21.06 311.717 21.04 311.597 21.03C311.487 21.02 311.367 21.015 311.237 21.015C310.927 21.015 310.652 21.085 310.412 21.225C310.172 21.355 309.987 21.56 309.857 21.84C309.727 22.11 309.662 22.47 309.662 22.92V27H307.442ZM319.048 22.44L315.718 16.425H318.268L320.893 21.63H320.323L322.948 16.425H325.498L322.168 22.44H319.048ZM319.453 27V21.735H321.763V27H319.453ZM328.712 27.18C327.912 27.18 327.202 27.01 326.582 26.67C325.972 26.33 325.492 25.855 325.142 25.245C324.792 24.625 324.617 23.9 324.617 23.07C324.617 22.23 324.792 21.505 325.142 20.895C325.492 20.275 325.972 19.795 326.582 19.455C327.202 19.115 327.912 18.945 328.712 18.945C329.522 18.945 330.232 19.115 330.842 19.455C331.462 19.795 331.947 20.275 332.297 20.895C332.647 21.505 332.822 22.23 332.822 23.07C332.822 23.9 332.647 24.625 332.297 25.245C331.947 25.855 331.462 26.33 330.842 26.67C330.232 27.01 329.522 27.18 328.712 27.18ZM328.712 25.38C329.072 25.38 329.387 25.295 329.657 25.125C329.927 24.945 330.137 24.685 330.287 24.345C330.447 23.995 330.527 23.57 330.527 23.07C330.527 22.56 330.447 22.135 330.287 21.795C330.137 21.445 329.927 21.185 329.657 21.015C329.387 20.845 329.072 20.76 328.712 20.76C328.362 20.76 328.047 20.845 327.767 21.015C327.497 21.185 327.282 21.445 327.122 21.795C326.972 22.135 326.897 22.56 326.897 23.07C326.897 23.57 326.972 23.995 327.122 24.345C327.282 24.685 327.497 24.945 327.767 25.125C328.047 25.295 328.362 25.38 328.712 25.38ZM337.597 27.18C336.897 27.18 336.277 27.06 335.737 26.82C335.197 26.57 334.777 26.2 334.477 25.71C334.177 25.22 334.027 24.605 334.027 23.865V19.125H336.247V23.76C336.247 24.28 336.367 24.675 336.607 24.945C336.847 25.215 337.177 25.35 337.597 25.35C338.017 25.35 338.347 25.215 338.587 24.945C338.827 24.675 338.947 24.28 338.947 23.76V19.125H341.167V23.865C341.167 24.605 341.017 25.22 340.717 25.71C340.417 26.2 339.997 26.57 339.457 26.82C338.917 27.06 338.297 27.18 337.597 27.18Z" fill="white"/>
<g filter="url(#filter0_d_59_8819)">
<line x1="304.5" y1="40" x2="327.5" y2="40" stroke="white" stroke-width="2"/>
</g>
<path fill-rule="evenodd" clip-rule="evenodd" d="M375.286 28.6231C373.621 29.8433 371.554 30.5662 369.315 30.5662C363.802 30.5662 359.333 26.186 359.333 20.7831C359.333 15.3802 363.802 11 369.315 11C374.827 11 379.296 15.3802 379.296 20.7831C379.296 23.2079 378.396 25.4268 376.906 27.1361L381.838 31.9701C382.054 32.1824 382.054 32.5266 381.838 32.7386L381.053 33.5074C380.837 33.7197 380.486 33.7197 380.269 33.5074L375.286 28.6231ZM377.078 20.7831C377.078 24.9854 373.602 28.3922 369.315 28.3922C365.027 28.3922 361.551 24.9854 361.551 20.7831C361.551 16.5807 365.027 13.174 369.315 13.174C373.602 13.174 377.078 16.5807 377.078 20.7831Z" fill="white"/>
<defs>
<filter id="filter0_d_59_8819" x="294.5" y="39" width="43" height="26" filterUnits="userSpaceOnUse" color-interpolation-filters="sRGB">
<feFlood flood-opacity="0" result="BackgroundImageFix"/>
<feColorMatrix in="SourceAlpha" type="matrix" values="0 0 0 0 0 0 0 0 0 0 0 0 0 0 0 0 0 0 127 0" result="hardAlpha"/>
<feOffset dy="14"/>
<feGaussianBlur stdDeviation="5"/>
<feComposite in2="hardAlpha" operator="out"/>
<feColorMatrix type="matrix" values="0 0 0 0 0 0 0 0 0 0 0 0 0 0 0 0 0 0 0.12 0"/>
<feBlend mode="normal" in2="BackgroundImageFix" result="effect1_dropShadow_59_8819"/>
<feBlend mode="normal" in="SourceGraphic" in2="effect1_dropShadow_59_8819" result="shape"/>
</filter>
<linearGradient id="paint0_linear_59_8819" x1="66.5" y1="21.5" x2="108" y2="21.5" gradientUnits="userSpaceOnUse">
<stop stop-color="white" stop-opacity="0"/>
<stop offset="1" stop-color="white"/>
</linearGradient>
</defs>
</svg>
